  <svg    width="1000"    height="1000"    viewBox="0 0 1000 1000"    xmlns="http://www.w3.org/2000/svg"  >    <defs>                                    <pattern        id="pattern10"        patternUnits="userSpaceOnUse"        width="30"        height="30"        viewBox="0 0 100 100"        fill="#E879F9"      >        <line          x1="50"          y1="0"          x2="50"          y2="100"          stroke="#E879F9"          stroke-width="10"        />        <line          x1="0"          y1="50"          x2="100"          y2="50"          stroke="#E879F9"          stroke-width="10"        />      </pattern>            <clipPath id="shape10">        <path fill="currentColor" d="M768.5,581Q693,662,633,787Q573,912,468.5,824Q364,736,271,676.5Q178,617,171,497.5Q164,378,262,317.5Q360,257,467,169Q574,81,716,140Q858,199,851,349.5Q844,500,768.5,581Z"></path>      </clipPath>    </defs>          <g  clip-path="url(#shape10)">      <path fill="url(#pattern10)" d="M768.5,581Q693,662,633,787Q573,912,468.5,824Q364,736,271,676.5Q178,617,171,497.5Q164,378,262,317.5Q360,257,467,169Q574,81,716,140Q858,199,851,349.5Q844,500,768.5,581Z" />    </g>        </svg>